<svg width="120" height="120" viewBox="11.3 97.5 477.4 304.9" fill="none" xmlns="http://www.w3.org/2000/svg">
  <!-- Pressure Washer Gun (centered and optimized) -->
  <path d="M291.3,374.8c-21.5,12.4-46.3,19.3-72.1,19.3c-25.7,0-50.5-6.9-72-19.3c-20.2-11.7-37.6-28.2-50.3-48.6h-9.8    
      c13.6,23.6,33,42.7,55.8,55.8h0.1c22.8,13.2,49,20.4,76.2,20.4s53.4-7.3,76.2-20.4c22.8-13.1,42.2-32.2,55.9-55.8h-9.8    
      C328.9,346.6,311.5,363.2,291.3,374.8z" fill="#2563eb"/>
  <path d="M488.7,147.9v-10.2L380,171.2v-2.2c0-1.9-1.6-3.5-3.5-3.5h-30.3c-13.2-19.8-30.6-36-50.7-47.6    
      c-22.8-13.2-49-20.4-76.2-20.4s-53.4,7.3-76.2,20.4H143c-17.7,10.3-33.4,24.1-46,40.9h-32c-8.6,0-15.7,7.1-15.7,15.7    
      c0,5.5,2.9,10.4,7.3,13.2c0,0-9.6,14.6-26.9,19.5c-17.4,5-19.8,5.9-17.8,11.6s9.8,11.6,12.7,14.4l22.2,22.4    
      c15.5,14.7,40.2-5.3,50-18.4c7.6-9.9,12.5-21.6,9.9-31.8c-0.9-3.5-0.6-6.3,1.2-9.2c1.4-2.2,3.3-4.2,5.2-6h21.6    
      c3.4,0,6.2-2.8,6.2-6.2v-3h188c0.4,0,0.7-0.1,1-0.3c1.6,1.7,4,2.8,6.5,2.8h40c1.9,0,3.5-1.6,3.5-3.5v-1.2l108.6,32.9v-10.2    
      L380,177.8v-1.1l108.6,14v-10.2L380,175.6v-1.2l108.6-5.4v-10.2L380,173.4v-1.1L488.7,147.9z M99.7,221.5    
      c-5.8,14.4-36.6,48.7-52,27.9c-6.8-9.1-1.2-17.6-1.2-17.6s33.3-35.6,35.9-38.2c2.5-2.6,7.4,2.5,7.4,2.5s-7.8,5.7-16.6,15.2    
      c-8.7,9.5-15.6,23.2-15.3,30.2c0.1,7,8.3,6.3,8.3,6.3l-1.9-3c-2.4-4.8,3.7-15.4,3.7-15.4c12.1-23.8,25.9-27.1,25.9-27.1    
      C104.7,211.3,99.7,221.5,99.7,221.5z M329,168.1H141v-3c0-3.4-2.8-6.2-6.2-6.2h-27.1c11.1-13.6,24.5-25,39.6-33.6    
      c21.5-12.5,46.3-19.3,72-19.3c25.8,0,50.5,6.8,72.1,19.3c17.4,10.1,32.7,23.7,44.7,40.3c-2.4,0.1-4.6,1.2-6.1,2.8    
      C329.7,168.2,329.3,168.1,329,168.1z" fill="#2563eb"/>
</svg>